HIERARCHY
ROOT Hips
{
	OFFSET -3.958830 18.904000 13.208200
	CHANNELS 6 Xposition Yposition Zposition Zrotation Yrotation Xrotation 
	JOINT LHipJoint
	{
		OFFSET 0.000000 0.000000 0.000000
		CHANNELS 3 Zrotation Yrotation Xrotation
		JOINT LeftUpLeg
		{
			OFFSET 1.800000 -1.400000 0.085000
			CHANNELS 3 Zrotation Yrotation Xrotation
			JOINT LeftLeg
			{
				OFFSET 2.215000 -6.000000 0.000000
				CHANNELS 3 Zrotation Yrotation Xrotation
				JOINT LeftFoot
				{
					OFFSET 2.500000 -6.900000 0.000000
					CHANNELS 3 Zrotation Yrotation Xrotation
					JOINT LeftToeBase
					{
						OFFSET 0.200000 -0.500000 1.950000
						CHANNELS 3 Zrotation Yrotation Xrotation
						End Site
						{
							OFFSET 0.000000 0.000000 0.000000
						}
					}
				}
			}
		}
	}
	JOINT RHipJoint
	{
		OFFSET 0.000000 0.000000 0.000000
		CHANNELS 3 Zrotation Yrotation Xrotation
		JOINT RightUpLeg
		{
			OFFSET -1.800000 -1.400000 0.085000
			CHANNELS 3 Zrotation Yrotation Xrotation
			JOINT RightLeg
			{
				OFFSET -2.215000 -6.000000 0.000000
				CHANNELS 3 Zrotation Yrotation Xrotation
				JOINT RightFoot
				{
					OFFSET -2.500000 -6.900000 0.000000
					CHANNELS 3 Zrotation Yrotation Xrotation
					JOINT RightToeBase
					{
						OFFSET -0.200000 -0.500000 1.950000
						CHANNELS 3 Zrotation Yrotation Xrotation
						End Site
						{
							OFFSET 0.000000 0.000000 0.000000
						}
					}
				}
			}
		}
	}
	JOINT LowerBack
	{
		OFFSET 0.000000 0.000000 0.000000
		CHANNELS 3 Zrotation Yrotation Xrotation
		JOINT Spine
		{
			OFFSET -0.087000 1.940000 -0.288900
			CHANNELS 3 Zrotation Yrotation Xrotation
			JOINT Spine1
			{
				OFFSET 0.000000 1.950000 0.060000
				CHANNELS 3 Zrotation Yrotation Xrotation
				JOINT Neck
				{
					OFFSET 0.000000 0.000000 0.000000
					CHANNELS 3 Zrotation Yrotation Xrotation
					JOINT Neck1
					{
						OFFSET 0.000000 1.600000 0.340000
						CHANNELS 3 Zrotation Yrotation Xrotation
						JOINT Head
						{
							OFFSET 0.000000 1.667000 -0.240000
							CHANNELS 3 Zrotation Yrotation Xrotation
							End Site
							{
								OFFSET 0.000000 0.000000 0.000000
							}
						}
					}
				}
				JOINT LeftShoulder
				{
					OFFSET 0.000000 0.000000 0.000000
					CHANNELS 3 Zrotation Yrotation Xrotation
					JOINT LeftArm
					{
						OFFSET 2.700000 1.550000 -0.730000
						CHANNELS 3 Zrotation Yrotation Xrotation
						JOINT LeftForeArm
						{
							OFFSET 5.450000 0.000000 0.000000
							CHANNELS 3 Zrotation Yrotation Xrotation
							JOINT LeftHand
							{
								OFFSET 3.450000 0.000000 0.000000
								CHANNELS 3 Zrotation Yrotation Xrotation
								JOINT LeftHandIndex1
								{
									OFFSET 0.750000 0.000000 0.000000
									CHANNELS 3 Zrotation Yrotation Xrotation
									End Site
									{
										OFFSET 0.000000 0.000000 0.000000
									}
								}
							}
						}
					}
				}
				JOINT RightShoulder
				{
					OFFSET 0.000000 0.000000 0.000000
					CHANNELS 3 Zrotation Yrotation Xrotation
					JOINT RightArm
					{
						OFFSET -2.700000 1.550000 -0.730000
						CHANNELS 3 Zrotation Yrotation Xrotation
						JOINT RightForeArm
						{
							OFFSET -5.450000 0.000000 0.000000
							CHANNELS 3 Zrotation Yrotation Xrotation
							JOINT RightHand
							{
								OFFSET -3.450000 0.000000 0.000000
								CHANNELS 3 Zrotation Yrotation Xrotation
								JOINT RightHandIndex1
								{
									OFFSET -0.750000 0.000000 0.000000
									CHANNELS 3 Zrotation Yrotation Xrotation
									End Site
									{
										OFFSET 0.000000 0.000000 0.000000
									}
								}
							}
						}
					}
				}
			}
		}
	}
}
MOTION
Frames: 7
Frame Time: 0.016667
-0.044850 13.001330 -1.915940 -57.355974 -64.536107 2.511432 -16.462296 9.093826 5.870142 -3.973786 -14.186343 -73.178681 59.517100 -21.842522 83.700239 3.130367 19.023678 -1.522155 0.827500 0.721840 1.028140 17.938567 -5.470317 5.393113 -51.205303 23.602044 -19.414092 48.098602 -58.302002 75.451183 -3.540900 -14.267779 -0.480143 0.210350 -0.541870 0.328340 -3.059665 -3.202220 -10.767023 -4.165980 12.812220 70.167192 -8.707651 12.845264 23.306865 7.741381 6.810635 -21.878585 8.652055 -1.200466 71.529812 2.830690 3.415610 -22.527560 -21.965159 -35.497123 14.578764 -27.932960 1.877320 -1.383509 9.316408 4.563782 -0.361207 -3.299593 2.830282 0.916180 -0.490660 0.787530 -0.151960 3.771409 41.724809 9.803824 14.027127 7.318073 -34.891625 -82.122250 31.873833 -32.946154 3.345749 -1.672958 0.167170 -0.024720 -0.293560 -0.193370 
-0.051000 13.025720 -1.863420 -54.277894 -66.441016 0.185030 -16.591436 9.205390 5.857672 -0.874882 -13.982250 -72.180849 62.066023 -24.112693 87.245759 3.533395 19.925778 -1.540762 0.933320 0.904530 1.180530 17.886630 -5.039281 5.309354 -51.929194 22.128754 -22.178865 44.009416 -56.370282 78.160721 -3.732818 -14.755929 -0.497513 0.280500 -0.601780 0.215580 -2.540248 -4.071052 -10.887566 -8.238665 15.721923 68.807898 -5.425881 13.285201 24.664366 7.755630 7.064855 -22.265148 9.385179 -2.091869 73.148153 -1.694540 4.191160 -26.170450 -22.001783 -36.323163 14.590674 -31.286208 1.687679 -2.382512 12.328922 4.937729 -0.087047 -3.194389 2.723051 0.911070 -0.550330 0.893500 -0.072520 3.783025 43.634270 11.078119 19.806603 6.571362 -37.756435 -82.681763 34.136290 -36.151819 3.447283 -1.626659 0.171600 0.147610 -0.448140 -0.172980 
-0.072080 12.975880 -1.789980 -52.140728 -69.606982 -1.674797 -16.645366 9.244182 6.180262 7.997865 -13.419963 -70.012468 60.649003 -26.902519 100.310371 4.039757 21.555316 -1.859116 1.056710 1.076160 1.212420 17.905820 -4.978756 4.821225 -50.737133 18.942187 -28.149463 27.682035 -47.171848 87.632833 -3.947590 -16.176162 -0.922872 0.343520 -0.720460 0.279430 -2.203437 -4.538152 -11.018707 -10.579092 16.486355 67.152542 -0.808564 13.229222 24.933851 5.588928 5.969238 -23.506412 5.741147 -0.349106 79.377516 2.387950 4.288640 -26.706640 -21.998921 -38.729796 15.011019 -36.031154 1.007752 -3.031507 14.389239 5.236631 -0.020147 -3.082981 2.921181 0.960200 -0.630190 1.005340 -0.084470 8.960954 46.019507 12.823879 25.380207 2.031099 -39.857756 -78.778938 37.239928 -36.114696 3.541433 -1.743033 0.281360 0.044820 -0.481940 -0.161910 
-0.079970 12.909270 -1.661230 -49.296682 -69.829394 -3.216023 -16.605731 9.717637 6.682264 16.627476 -15.930047 -65.922606 54.317822 -26.135129 116.603511 4.229549 21.974414 -1.940880 1.223220 1.277250 1.359320 17.942881 -5.706564 3.515771 -46.399495 12.504634 -32.054716 6.878649 -31.048917 95.812592 -3.647232 -15.325122 -0.835895 0.430860 -0.886580 0.295770 -1.699573 -5.138576 -10.817787 -11.169082 14.524788 66.347546 2.502245 11.922276 24.435458 4.769844 6.079634 -25.305535 6.226652 -1.716499 86.901381 1.636760 4.228220 -29.253710 -24.404567 -40.907641 14.995053 -36.788758 0.746576 -5.169597 20.438749 2.687792 -0.772671 -2.950662 3.028970 1.037390 -0.731450 1.154630 -0.082200 13.969061 46.981629 13.454419 31.728748 -0.738941 -37.743992 -68.949283 29.464634 -27.395854 3.380041 -1.872305 0.359280 0.022050 -0.571210 -0.188070 
-0.110300 12.794550 -1.529720 -49.974639 -72.813844 -2.988407 -16.445488 10.253464 6.911771 22.561076 -16.517004 -61.475753 49.004618 -21.498107 126.333873 3.891420 20.360090 -1.625617 1.225530 1.295360 1.339550 18.003987 -6.724775 2.542064 -39.110058 7.444479 -37.654901 -9.675279 -10.942722 90.888859 -2.909203 -12.613766 -0.236614 0.468200 -0.829930 0.237950 -1.691911 -4.963881 -10.459889 -8.231515 11.707584 66.834208 3.289108 11.519029 24.937020 3.839485 5.019198 -26.294719 1.768318 -0.200530 88.764547 4.784530 2.844740 -28.841850 -24.178635 -41.788087 13.844737 -34.013308 -2.604260 -4.790869 20.214040 2.378846 -1.143382 -2.997009 2.937094 1.054050 -0.742980 1.134290 -0.067040 16.194014 47.198810 13.999800 37.263802 -4.330244 -30.251971 -54.288541 13.833457 -13.515904 3.228729 -1.903654 0.309670 0.119540 -0.557730 -0.175110 
-0.095990 12.764360 -1.434190 -45.433338 -78.399849 -11.426300 -15.857795 11.363761 6.263551 24.154017 -15.460223 -48.625122 42.729968 -9.511515 133.115854 3.358714 17.458821 -0.998028 1.293490 1.388340 1.346720 18.358001 -7.477446 2.185491 -31.904133 5.259418 -39.089189 -19.141819 1.285184 75.410519 -2.430984 -10.415137 0.367665 0.481200 -0.840390 0.233930 -1.130253 -5.575481 -9.976674 -9.628635 13.995691 71.728242 5.119276 12.753207 25.242006 3.264015 3.975026 -27.724466 -2.489635 1.611369 88.744681 6.060620 2.685570 -29.887680 -23.707556 -41.979618 12.153353 -27.045802 -6.213991 -6.620533 23.192829 -1.131386 -2.377766 -2.976162 3.013402 1.051910 -0.780690 1.186460 0.028110 17.875771 47.975397 15.092532 36.668105 -5.926079 -20.924155 -38.667138 1.510309 -3.843023 3.404084 -1.757060 0.351990 0.122490 -0.653430 -0.126390 
-0.076960 12.645080 -1.358800 -30.768982 -79.015817 -27.348769 -15.278485 10.944978 6.314071 27.839136 -18.383042 -40.895969 34.628923 13.471254 143.443448 3.215970 16.251517 -0.689578 1.203090 1.243550 1.246230 18.918022 -7.564072 2.055814 -29.498331 0.009542 -42.199775 -23.850580 3.366155 60.501882 -1.940855 -8.612800 0.832592 0.391630 -0.781220 0.238720 -0.391619 -6.636981 -10.221572 -11.224301 13.894408 76.445834 7.779615 11.312981 22.302733 2.150948 1.302696 -28.429781 -9.725049 5.520694 86.903083 9.679440 1.997030 -26.683540 -22.478015 -41.916803 10.686125 -20.780182 -7.807234 -10.122291 27.295650 -6.875995 -4.337527 -2.995685 3.179751 1.027230 -0.779350 1.106200 0.023470 20.765615 47.568243 16.388389 37.196582 -5.716620 -10.688895 -21.075641 -5.474965 1.012165 3.331347 -1.295149 0.340550 0.050190 -0.609600 -0.105460 
